<svg xmlns="http://www.w3.org/2000/svg" viewBox="0 0 512 512" role="img" aria-labelledby="title desc">
  <title id="title">General Trias College of Cavite Emblem</title>
  <desc id="desc">Circular maroon crest with a golden shield and the motto Veritas Freedom for the General Trias College of Cavite.</desc>
  <defs>
    <linearGradient id="shieldGradient" x1="0%" y1="0%" x2="0%" y2="100%">
      <stop offset="0%" stop-color="#ffd152" />
      <stop offset="55%" stop-color="#f28f1a" />
      <stop offset="100%" stop-color="#cc3d11" />
    </linearGradient>
    <linearGradient id="bannerGradient" x1="0%" y1="0%" x2="100%" y2="0%">
      <stop offset="0%" stop-color="#821428" />
      <stop offset="50%" stop-color="#a61d32" />
      <stop offset="100%" stop-color="#821428" />
    </linearGradient>
    <radialGradient id="innerGlow" cx="50%" cy="45%" r="60%">
      <stop offset="0%" stop-color="#fff5d6" stop-opacity="0.95" />
      <stop offset="60%" stop-color="#ffd152" stop-opacity="0.25" />
      <stop offset="100%" stop-color="transparent" />
    </radialGradient>
    <clipPath id="shieldClip">
      <path d="M256 136c-72.1 0-116 18.6-116 18.6v92.7c0 69.1 45.8 109 116 140.7 70.2-31.7 116-71.6 116-140.7v-92.7S328.1 136 256 136z" />
    </clipPath>
    <path id="outerTextPath" d="M256 60a196 196 0 1 1 0 392 196 196 0 1 1 0-392z" />
    <path id="innerTextPath" d="M256 452a196 196 0 1 1 0-392 196 196 0 1 1 0 392z" />
  </defs>
  <circle cx="256" cy="256" r="244" fill="#6f1023" />
  <circle cx="256" cy="256" r="228" fill="#b32032" />
  <circle cx="256" cy="256" r="205" fill="#ffffff" />
  <circle cx="256" cy="256" r="182" fill="#6f1023" />
  <g font-family="'Cinzel', 'Times New Roman', serif" font-weight="600">
    <text fill="#ffffff" font-size="38" letter-spacing="6">
      <textPath href="#outerTextPath" startOffset="5%">GENERAL TRIAS COLLEGE OF CAVITE</textPath>
    </text>
    <text fill="#ffffff" font-size="34" letter-spacing="18">
      <textPath href="#innerTextPath" startOffset="64%">2006</textPath>
    </text>
  </g>
  <g clip-path="url(#shieldClip)">
    <path d="M256 136c-72.1 0-116 18.6-116 18.6v92.7c0 69.1 45.8 109 116 140.7 70.2-31.7 116-71.6 116-140.7v-92.7S328.1 136 256 136z" fill="url(#shieldGradient)" stroke="#6f1023" stroke-width="10" />
    <rect x="172" y="210" width="36" height="92" fill="#8f151f" rx="6" />
    <rect x="220" y="210" width="36" height="92" fill="#8f151f" rx="6" />
    <rect x="268" y="210" width="36" height="92" fill="#8f151f" rx="6" />
    <rect x="316" y="210" width="36" height="92" fill="#8f151f" rx="6" />
    <path d="M160 198h200" stroke="#6f1023" stroke-width="12" stroke-linecap="round" />
    <path d="M256 198v170" stroke="#421417" stroke-width="14" stroke-linecap="round" />
    <path d="M320 198v120" stroke="#421417" stroke-width="14" stroke-linecap="round" />
    <path d="M192 198v120" stroke="#421417" stroke-width="14" stroke-linecap="round" />
    <g transform="translate(256 258)">
      <circle r="28" fill="#fff4d2" stroke="#6f1023" stroke-width="10" />
      <path d="M0-16v32" stroke="#6f1023" stroke-width="8" stroke-linecap="round" />
      <path d="M-16 0h32" stroke="#6f1023" stroke-width="8" stroke-linecap="round" />
    </g>
    <circle cx="256" cy="250" r="160" fill="url(#innerGlow)" />
  </g>
  <path d="M140 332h232l-32 64H172z" fill="url(#bannerGradient)" stroke="#6f1023" stroke-width="8" />
  <text x="256" y="380" font-family="'Cinzel', 'Times New Roman', serif" font-size="42" font-weight="600" fill="#f6d9b2" text-anchor="middle" letter-spacing="8">VERITAS · FREEDOM</text>
  <g fill="#ffffff">
    <circle cx="156" cy="432" r="12" />
    <circle cx="196" cy="440" r="12" />
    <circle cx="236" cy="444" r="12" />
    <circle cx="276" cy="444" r="12" />
    <circle cx="316" cy="440" r="12" />
    <circle cx="356" cy="432" r="12" />
  </g>
</svg>
